<svg width="131" height="128" viewBox="0 0 131 128" fill="none" xmlns="http://www.w3.org/2000/svg"><path fill-rule="evenodd" clip-rule="evenodd" d="M52.566 103.804c25.051 7.659 51.568-6.44 59.227-31.492 7.659-25.051-6.44-51.568-31.492-59.227-25.051-7.659-51.568 6.44-59.227 31.492-7.659 25.051 6.44 51.568 31.492 59.227z" fill="#527C5A"/><g filter="url(#filter0_d)"><path fill-rule="evenodd" clip-rule="evenodd" d="M7.331 73.601c-2.486 1.608-2.425 5.265.113 6.789l49.38 29.644a19 19 0 0020.3-.468l45.324-30.142c3.81-2.533 3.495-8.229-.571-10.327L69.775 42.205a15 15 0 00-15.025.733L7.33 73.6z" fill="#fff"/></g><path d="M79.954 32.5l-27 4.5 5.5 2.5 30-3.5-1.282-1.281a8 8 0 00-6.54-2.294l-.678.075z" fill="#CFDFC7"/><path d="M58.454 37.5l-2.748-.5c-4.297-.78-8.252 2.52-8.252 6.888v19.04l3 4.072 8-29.5z" fill="#CFDFC7"/><path d="M50.454 45.857a8 8 0 016.776-7.906l25.647-3.969c4.967-.769 9.404 3.18 9.218 8.202l-.404 10.898a8 8 0 01-6.555 7.574L50.454 67V45.857z" fill="#95B19B"/><path d="M50.454 74v-7l13-2.5-13 9.5z" fill="#95B19B"/><path d="M47.954 72.5l-.5-9.5 3 4v7l-2.5-1.5zm9.5-25.273c0-.711.507-1.32 1.206-1.45l24.05-4.454a1.475 1.475 0 01.537 2.9l-24.05 4.454a1.475 1.475 0 01-1.743-1.45zm0 5.5c0-.711.507-1.32 1.206-1.45l24.05-4.454a1.475 1.475 0 01.537 2.9l-24.05 4.454a1.475 1.475 0 01-1.743-1.45zm0 5.997c0-.71.505-1.319 1.202-1.45l13.052-2.447a1.474 1.474 0 11.543 2.898L59.2 60.173a1.474 1.474 0 01-1.746-1.45z" fill="#CFDFC7"/><circle cx="47.818" cy="34.364" r="12.364" fill="#8D9DDC"/><path d="M49.879 47.416c-6.64 0-12.021-5.382-12.021-12.021 0-6.64 5.382-12.021 12.02-12.021 6.64 0 12.022 5.382 12.022 12.02 0 6.64-5.382 12.022-12.021 12.022zm1.202-12.021v-6.01h-2.404v8.414h7.212v-2.404h-4.808z" fill="#B3BFF0"/><defs><filter id="filter0_d" x=".503" y="37.534" width="129.622" height="82.211" filterUnits="userSpaceOnUse" color-interpolation-filters="sRGB"><feFlood flood-opacity="0" result="BackgroundImageFix"/><feColorMatrix in="SourceAlpha" values="0 0 0 0 0 0 0 0 0 0 0 0 0 0 0 0 0 0 127 0"/><feOffset dy="2"/><feGaussianBlur stdDeviation="2.5"/><feColorMatrix values="0 0 0 0 0.00135416 0 0 0 0 0.1625 0 0 0 0 0.134936 0 0 0 0.15 0"/><feBlend in2="BackgroundImageFix" result="effect1_dropShadow"/><feBlend in="SourceGraphic" in2="effect1_dropShadow" result="shape"/></filter></defs></svg>