<svg width="130" height="128" viewBox="0 0 130 128" fill="none" xmlns="http://www.w3.org/2000/svg"><path fill-rule="evenodd" clip-rule="evenodd" d="M52.112 103.804c25.051 7.659 51.568-6.44 59.227-31.492 7.659-25.051-6.44-51.568-31.491-59.227-25.052-7.659-51.569 6.44-59.227 31.492-7.66 25.051 6.44 51.568 31.491 59.227z" fill="#527C5A"/><g filter="url(#filter0_d)"><path fill-rule="evenodd" clip-rule="evenodd" d="M6.878 73.601c-2.486 1.608-2.425 5.265.113 6.789l49.379 29.644a19 19 0 0020.3-.468l45.324-30.142c3.81-2.533 3.495-8.229-.571-10.327L69.321 42.205a15 15 0 00-15.025.733L6.878 73.6z" fill="#fff"/></g><rect x="80.514" y="30.879" width="17" height="27" rx="2" transform="rotate(16.528 80.514 30.88)" fill="#8D9DDC"/><rect x="82.597" y="29.356" width="17" height="27" rx="2" transform="rotate(16.528 82.597 29.356)" fill="#B3BFF0"/><path fill-rule="evenodd" clip-rule="evenodd" d="M54.305 55.986a76.64 76.64 0 00-.943-1.498c-7.52 2.472-12.05 5.442-13.59 8.911-1.539 3.469-2.075 6.996-1.61 10.582 8.582 3.438 16.719 4.67 24.41 3.696 7.69-.974 13.245-3.341 16.665-7.102.153-2.739-.272-5.665-1.275-8.78-.992-3.08-4.89-5.175-11.692-6.282a8.362 8.362 0 00-.216-.267c-.366.365-.685.73-.988 1.078-1.068 1.224-1.942 2.225-3.968 2.225-2.155 0-4.44-.717-6.793-2.563z" fill="#527C5A"/><path fill-rule="evenodd" clip-rule="evenodd" d="M61.417 25.506c-5.245-.317-8.49.212-9.735 1.585-1.868 2.059-6.178 5.718-5.481 10.427.697 4.71 3.577 6.12 5.48 9.944 1.27 2.55 4.332 4.344 9.186 5.384l.013-.647c.178.015.357.023.537.023 5.377 0 8.448-5.044 8.448-12.103 0-1.877.42-5.57 0-7.365-1.16-4.957-4.5-7.248-8.447-7.248z" fill="#FAFAFA"/><path fill-rule="evenodd" clip-rule="evenodd" d="M67.082 32.298c-3.869.631-10.813-2.925-10.551-2.925 0 0-.754 3.46-2.667 4.31-2.818 1.252-3.659 6.25-3.673 11.338-1.787-2.178-3.592-4.404-4.072-6.108-.719-2.555-.8-8.994 1.168-12.078 1.967-3.085 4.645-4.867 9.244-5.726 2.798-.522 7.961.875 10.164 3.196 2.493 2.628 4.718 1.78 5.7 1.198 0 0 .205 2.974-.845 4.602-.603.934-.598 1.562-4.468 2.193z" fill="#CFDFC7"/><path fill-rule="evenodd" clip-rule="evenodd" d="M53.753 50.11l-.509 4.58c1.018 1.527 1.475 1.984 2.036 2.34 1.82 1.151 4.877 1.732 6.107 1.732 1.214 0 1.867-.64 2.987-1.732.3-.293 1.132-.983 1.594-1.83v-4.581c-2.312 1.097-4.765 1.633-6.108 1.527-1.342-.107-2.853-.298-6.107-2.036z" fill="#F1F0F0"/><defs><filter id="filter0_d" x=".05" y="37.534" width="129.622" height="82.211" filterUnits="userSpaceOnUse" color-interpolation-filters="sRGB"><feFlood flood-opacity="0" result="BackgroundImageFix"/><feColorMatrix in="SourceAlpha" values="0 0 0 0 0 0 0 0 0 0 0 0 0 0 0 0 0 0 127 0"/><feOffset dy="2"/><feGaussianBlur stdDeviation="2.5"/><feColorMatrix values="0 0 0 0 0.00135416 0 0 0 0 0.1625 0 0 0 0 0.134936 0 0 0 0.15 0"/><feBlend in2="BackgroundImageFix" result="effect1_dropShadow"/><feBlend in="SourceGraphic" in2="effect1_dropShadow" result="shape"/></filter></defs></svg>