<svg width="130" height="128" viewBox="0 0 130 128" fill="none" xmlns="http://www.w3.org/2000/svg"><path fill-rule="evenodd" clip-rule="evenodd" d="M52.112 103.804c25.051 7.659 51.568-6.44 59.227-31.492 7.659-25.051-6.44-51.568-31.491-59.227-25.052-7.659-51.569 6.44-59.227 31.492-7.66 25.051 6.44 51.568 31.491 59.227z" fill="#527C5A"/><g filter="url(#filter0_d)"><path fill-rule="evenodd" clip-rule="evenodd" d="M6.878 73.601c-2.486 1.608-2.425 5.265.113 6.789l49.379 29.644a19 19 0 0020.3-.468l45.324-30.142c3.81-2.533 3.495-8.229-.571-10.327L69.321 42.205a15 15 0 00-15.025.733L6.878 73.6z" fill="#fff"/></g><rect x="52.333" y="62" width="36.667" height="10.889" rx="2" fill="#8D9DDC"/><rect x="56" y="65.111" width="36.667" height="10.889" rx="2" fill="#B3BFF0"/><rect x="35" y="38" width="54.444" height="17.778" rx="2" fill="#95B19B"/><rect x="38.333" y="40.222" width="54.444" height="17.778" rx="2" fill="#E1EEDA"/><path d="M43.889 48.556l4.444 3.888 5-6.666" stroke="#527C5A" stroke-width="2"/><defs><filter id="filter0_d" x=".05" y="37.534" width="129.622" height="82.211" filterUnits="userSpaceOnUse" color-interpolation-filters="sRGB"><feFlood flood-opacity="0" result="BackgroundImageFix"/><feColorMatrix in="SourceAlpha" values="0 0 0 0 0 0 0 0 0 0 0 0 0 0 0 0 0 0 127 0"/><feOffset dy="2"/><feGaussianBlur stdDeviation="2.5"/><feColorMatrix values="0 0 0 0 0.00135416 0 0 0 0 0.1625 0 0 0 0 0.134936 0 0 0 0.15 0"/><feBlend in2="BackgroundImageFix" result="effect1_dropShadow"/><feBlend in="SourceGraphic" in2="effect1_dropShadow" result="shape"/></filter></defs></svg>