<svg width="131" height="128" viewBox="0 0 131 128" fill="none" xmlns="http://www.w3.org/2000/svg"><g clip-path="url(#clip0)"><path fill-rule="evenodd" clip-rule="evenodd" d="M52.566 103.804c25.051 7.659 51.568-6.44 59.227-31.492 7.659-25.051-6.44-51.568-31.492-59.227-25.051-7.659-51.568 6.44-59.227 31.492-7.659 25.051 6.44 51.568 31.492 59.227z" fill="#527C5A"/><g filter="url(#filter0_d)"><path fill-rule="evenodd" clip-rule="evenodd" d="M7.331 73.601c-2.486 1.608-2.425 5.265.113 6.788l49.38 29.645a19 19 0 0020.3-.468l45.324-30.142c3.81-2.533 3.495-8.229-.571-10.327L69.775 42.205a15 15 0 00-15.025.733L7.33 73.6z" fill="#fff"/></g><path d="M86.662 43.236a2 2 0 00-.264-2.055l-14.38-18.08c-.941-1.183-2.805-.934-3.403.456L49.341 68.405a2 2 0 00.187 1.919l13.236 19.343c.885 1.293 2.845 1.112 3.48-.32l20.418-46.111z" fill="#95B19B"/><path d="M84.491 42.632a2 2 0 00-.27-2.063L69.765 22.59c-.945-1.175-2.8-.921-3.396.464L47.344 67.341a2 2 0 00.194 1.928l13.319 19.224c.889 1.283 2.84 1.098 3.472-.33l20.162-45.531z" fill="#CFDFC7"/><path d="M83.174 42.554L67.703 23.992 50.646 62.508l14.856 19.258 17.672-39.212z" fill="#E3F0DC"/><path d="M55.048 75.714c.911 0 1.65-.986 1.65-2.201 0-1.216-.739-2.201-1.65-2.201-.912 0-1.651.985-1.651 2.2 0 1.216.739 2.202 1.65 2.202z" fill="#95B19B"/><path fill-rule="evenodd" clip-rule="evenodd" d="M52.566 103.804c25.051 7.659 51.568-6.44 59.227-31.492 7.659-25.051-6.44-51.568-31.492-59.227-25.051-7.659-51.568 6.44-59.227 31.492-7.659 25.051 6.44 51.568 31.492 59.227z" fill="#527C5A"/><g filter="url(#filter1_d)"><path fill-rule="evenodd" clip-rule="evenodd" d="M7.331 73.601c-2.486 1.608-2.425 5.265.113 6.789l49.38 29.644a19 19 0 0020.3-.468l45.324-30.142c3.81-2.533 3.495-8.229-.571-10.327L69.775 42.205a15 15 0 00-15.025.733L7.33 73.6z" fill="#fff"/></g><path d="M86.662 43.236a2 2 0 00-.264-2.055l-14.38-18.08c-.941-1.183-2.805-.934-3.403.456L49.341 68.405a2 2 0 00.187 1.919l13.236 19.343c.885 1.292 2.845 1.112 3.48-.32l20.418-46.111z" fill="#95B19B"/><path d="M84.491 42.632a2 2 0 00-.27-2.063L69.765 22.591c-.945-1.175-2.8-.921-3.396.464L47.344 67.341a2 2 0 00.194 1.928l13.319 19.224c.889 1.283 2.84 1.098 3.472-.33l20.162-45.531z" fill="#CFDFC7"/><path d="M83.174 42.554L67.703 23.992 50.646 62.508l14.856 19.258 17.672-39.212z" fill="#E3F0DC"/><ellipse cx="55.048" cy="73.513" rx="1.651" ry="2.201" fill="#95B19B"/><path d="M91.866 81.21c-3.28 3.382-8.57 3.352-11.815-.067-3.245-3.419-1.717-8.933 1.563-12.315 3.28-3.383 8.292-3.42 11.537 0 3.245 3.419 1.995 8.998-1.285 12.381z" fill="#8D9DDC"/><path d="M90.527 79.445c-3.11 3.208-8.127 3.18-11.204-.062-3.078-3.243-1.629-8.472 1.482-11.68 3.11-3.209 7.864-3.243 10.941 0 3.078 3.242 1.892 8.534-1.219 11.742z" fill="#B3BFF0"/><path d="M95.062 59.75c-2.187 2.255-5.713 2.236-7.876-.044-2.164-2.28-1.145-5.955 1.041-8.21 2.187-2.255 5.528-2.28 7.691 0 2.164 2.28 1.33 6-.856 8.254z" fill="#8D9DDC"/><path d="M94.17 58.575a5.132 5.132 0 01-7.47-.042c-2.052-2.162-1.086-5.648.988-7.787 2.073-2.139 5.242-2.162 7.294 0 2.052 2.162 1.261 5.69-.813 7.828z" fill="#B3BFF0"/></g><defs><filter id="filter0_d" x=".503" y="37.534" width="129.622" height="82.211" filterUnits="userSpaceOnUse" color-interpolation-filters="sRGB"><feFlood flood-opacity="0" result="BackgroundImageFix"/><feColorMatrix in="SourceAlpha" values="0 0 0 0 0 0 0 0 0 0 0 0 0 0 0 0 0 0 127 0"/><feOffset dy="2"/><feGaussianBlur stdDeviation="2.5"/><feColorMatrix values="0 0 0 0 0.00135416 0 0 0 0 0.1625 0 0 0 0 0.134936 0 0 0 0.15 0"/><feBlend in2="BackgroundImageFix" result="effect1_dropShadow"/><feBlend in="SourceGraphic" in2="effect1_dropShadow" result="shape"/></filter><filter id="filter1_d" x=".503" y="37.534" width="129.622" height="82.211" filterUnits="userSpaceOnUse" color-interpolation-filters="sRGB"><feFlood flood-opacity="0" result="BackgroundImageFix"/><feColorMatrix in="SourceAlpha" values="0 0 0 0 0 0 0 0 0 0 0 0 0 0 0 0 0 0 127 0"/><feOffset dy="2"/><feGaussianBlur stdDeviation="2.5"/><feColorMatrix values="0 0 0 0 0.00135416 0 0 0 0 0.1625 0 0 0 0 0.134936 0 0 0 0.15 0"/><feBlend in2="BackgroundImageFix" result="effect1_dropShadow"/><feBlend in="SourceGraphic" in2="effect1_dropShadow" result="shape"/></filter><clipPath id="clip0"><path fill="#fff" transform="translate(.454)" d="M0 0h130v128H0z"/></clipPath></defs></svg>