<svg width="193" height="30" viewBox="0 0 193 30" fill="none" xmlns="http://www.w3.org/2000/svg"><path fill-rule="evenodd" clip-rule="evenodd" d="M67.413 8.622H51.586v2.995h2.525c1.122 0 2.244 0 3.365.002.002 4.422.002 8.842 0 13.264 1.348.003 2.696.001 4.046 0h.002v-4.42c-.001-2.948-.002-5.896 0-8.844 1.308-.002 2.616-.001 3.925 0h1.963l.001-2.997zm52.132 5.227l-.001.001c-.512.578-1.023 1.155-1.538 1.728l.001.691a508.302 508.302 0 011.565.002c.003.734.002 1.469.001 2.204-.001.98-.002 1.959.007 2.938.022 1.333.726 2.702 1.993 3.255 1.734.762 3.754.46 5.458-.24l-.001-1.074c.001-.478.001-.955-.001-1.433-.871.413-1.85.76-2.826.568-.709-.149-1.164-.857-1.164-1.55-.022-.947-.018-1.893-.015-2.84v-.001c.003-.609.005-1.217 0-1.826.728-.002 1.457-.002 2.185-.002h1.822v-2.385h-4.005c-.002-.578-.002-1.155-.002-1.733.001-.577.001-1.155-.001-1.732-.105.01-.314.025-.419.033a200.983 200.983 0 00-3.058 3.396h-.001zm-46.7.124c-2.092-.677-4.63-.301-6.19 1.321-1.087 1.055-1.63 2.58-1.608 4.075-.033 1.308.35 2.655 1.214 3.66.986 1.182 2.483 1.854 4.002 2.018 2.084.219 4.333-.106 6.043-1.385-.01-.48-.01-.959-.008-1.438v-.76c-1.585 1.21-3.727 2.036-5.699 1.304-1.195-.407-1.918-1.613-1.978-2.83 1.38-.003 2.759-.003 4.138-.002 1.254 0 2.509.001 3.763-.002.001-.882-.064-1.777-.356-2.616a5.352 5.352 0 00-3.322-3.345zm-4.14 4.147c.101-.782.36-1.643 1.08-2.075.736-.415 1.696-.424 2.453-.06.792.402 1.092 1.315 1.203 2.136-1.579.003-3.158.003-4.736 0zm19.732-3.57c-1.039-.873-2.524-1.075-3.816-.74-.958.255-1.767.88-2.413 1.61v-1.534c-1.15-.003-2.3-.001-3.45 0v10.998h3.45c.005-.92.002-1.842 0-2.764-.003-1.432-.007-2.865.014-4.296.353-.616.846-1.17 1.448-1.553.664-.42 1.67-.404 2.205.217.444.537.465 1.27.478 1.934.002 1.435.001 2.87 0 4.306v2.155c.862.002 1.725.002 2.587.002h.864v-7.258c-.01-1.148-.438-2.348-1.367-3.077zm10.87-.703c-2.28-.462-4.742-.098-6.725 1.137a566.44 566.44 0 000 2.856c1.252-1.284 3.115-2.18 4.933-1.74.764.18 1.088.994 1.05 1.709-1.323.397-2.645.807-3.924 1.329l-.196.086c-.646.28-1.317.571-1.771 1.125-.6.722-.787 1.725-.613 2.632.326 1.22 1.557 2.09 2.807 2.121 1.37.074 2.702-.441 3.822-1.197.164.517.553.973 1.102 1.1 1.418.337 2.871-.193 4.095-.89-.002-.649-.004-1.295.003-1.941-.1.056-.201.12-.303.184-.386.245-.793.503-1.257.387-.307-.158-.317-.54-.325-.838v-.01c-.005-.955-.004-1.91-.003-2.866.001-.734.002-1.469 0-2.203-.005-.71-.24-1.43-.727-1.959-.512-.555-1.239-.861-1.967-1.022zM96.18 22.94c-.825-.375-.837-1.59-.18-2.132.635-.528 1.424-.817 2.197-1.101l.352-.13c.002.408.002.816.002 1.225v.004c0 .467 0 .934.003 1.402-.635.543-1.522 1.04-2.374.732zm15.975-9.277c-1.357 0-2.591.755-3.45 1.758v-1.535c-1.15-.003-2.3-.001-3.451 0v10.999h3.451c.005-.922.002-1.843 0-2.765-.003-1.433-.007-2.865.015-4.297.353-.615.845-1.17 1.447-1.552.663-.42 1.667-.404 2.203.214.448.54.467 1.278.48 1.945.003 2.15.001 4.302 0 6.453a826.67 826.67 0 003.451.002l.001-3.01c-.001-1.204-.001-2.408.002-3.612.03-.913-.054-1.863-.505-2.677-.693-1.29-2.201-2.009-3.644-1.923z" fill="#41A541"/><path fill-rule="evenodd" clip-rule="evenodd" d="M132.619 9.904c1.742-1.09 3.837-1.509 5.875-1.485 2.017-.013 4.072.391 5.828 1.408.006 1.218 0 2.435.003 3.652-1.778-.982-3.773-1.717-5.835-1.646-1.649.011-3.343.598-4.464 1.834-1.661 1.744-1.543 4.809.224 6.44 1.223 1.218 3.02 1.696 4.716 1.603 1.986-.027 3.789-.953 5.537-1.788.005 1.189-.008 2.38.008 3.57-2.678 1.462-5.864 1.952-8.865 1.4-2.14-.377-4.144-1.539-5.442-3.283-1.475-1.9-1.875-4.483-1.318-6.789.508-2.056 1.951-3.799 3.733-4.916zm14.762-1.282c1.149-.001 2.299-.003 3.448 0 .003 5.42 0 10.84.002 16.26-1.151.004-2.301.002-3.451.002 0-5.421-.002-10.841.001-16.262zm42.098.013c1.151-.03 2.304-.008 3.456-.013.002 5.42.002 10.84 0 16.26-1.15.002-2.301.004-3.451 0a34.21 34.21 0 01.003-.848c-1.897 1.601-5.031 1.398-6.665-.482-1.101-1.148-1.596-2.768-1.533-4.335-.024-1.847.841-3.728 2.42-4.75 1.709-1.112 3.987-1.005 5.775-.128-.002-1.9.008-3.802-.005-5.704zm-3.068 7.577c-.887.385-1.379 1.322-1.519 2.235-.16 1.109-.112 2.336.543 3.291.422.63 1.155 1.054 1.925 1.041.807.043 1.54-.386 2.126-.9 0-1.75-.005-3.503.001-5.253-.88-.612-2.07-.86-3.076-.414zm-28.044-2.483c1.796-.235 3.733.085 5.193 1.205a4.986 4.986 0 011.987 3.19c.238 1.484.117 3.108-.724 4.398-1.577 2.333-4.78 3.049-7.402 2.33-1.885-.499-3.522-1.999-3.977-3.912-.31-1.335-.254-2.794.327-4.053.825-1.77 2.679-2.92 4.596-3.158zm.497 2.11c-1.154.279-1.719 1.498-1.835 2.577-.107 1.178-.117 2.449.453 3.524.696 1.383 2.96 1.495 3.804.204.568-.865.64-1.942.635-2.945-.014-.932-.125-1.94-.727-2.695-.544-.681-1.515-.853-2.33-.665zm9.061-1.951c1.15-.006 2.301-.002 3.451-.003.014 2.348-.022 4.696.019 7.043 0 .746.362 1.616 1.169 1.79 1.276.362 2.558-.617 2.942-1.78.039-2.35.005-4.702.017-7.052a844.15 844.15 0 013.45 0v10.997c-1.151.002-2.301.003-3.451 0 0-.513-.002-1.024.004-1.534-.666.733-1.48 1.38-2.46 1.624-1.314.315-2.826.107-3.859-.808-.885-.75-1.29-1.935-1.282-3.069.001-2.403.003-4.805 0-7.208z" fill="#141414"/><path fill-rule="evenodd" clip-rule="evenodd" d="M28.465 1.216c2.182 1.003 3.882 2.256 5.167 3.947 1.286 1.69 2.19 3.264 2.737 5.61.371.013.931.083 1.165.122.233.039.597.113.866.186.27.073.528.148.839.265.212.08.367.126.771.32.405.193.415.2.742.384 1.037.584 1.37.92 1.801 1.342.431.42.486.485.737.778.251.293.26.313.38.476.114.154.217.309.32.465.3.447.568.933.78 1.428.142.33.356.914.511 1.51.045.172.08.347.113.515.023.121.047.239.058.352.032.345.091.691.098 1.034.014.713-.02 1.423-.149 2.118a9.631 9.631 0 01-1.849 4.14c-.703.918-1.521 1.604-2.412 2.196-.691.46-1.435.805-2.28 1.087-.684.182-1.38.365-2.102.41a17.18 17.18 0 01-1.907.095c-1.604 0-3.436-.02-5.104 0-.378.005-.752 0-1.115 0h-1.82c-.324-.001-.394.007-.99 0-.323-.004-1.074.05-1.852-.145-.096-.025-.198-.059-.316-.098l-.059-.021a3.894 3.894 0 01-.259-.107c-.07-.032-.177-.086-.177-.086l-.114-.061c-.05-.028.11.07-.118-.069a3.745 3.745 0 01-.792-.609c-.041-.043-.108-.11-.147-.154a3.473 3.473 0 01-.224-.277c-.068-.095-.059-.08-.087-.122-.06-.089-.103-.149-.176-.277-.073-.128-.08-.148-.1-.187-.02-.04-.022-.04-.075-.157-.053-.117-.034-.081-.066-.158a3.156 3.156 0 01-.103-.298 3.957 3.957 0 01-.073-.283 3.436 3.436 0 01-.089-.687 19.37 19.37 0 01-.018-.826c0-.79.004-1.52 0-1.734-.026-2.272 0-4.527 0-6.806-1.304-.002-2.547 0-3.852-.001 2.392-2.385 4.784-4.77 7.177-7.152v3.9h3.263v3.252h-3.263c0 1.996-.04 3.976-.04 5.97 0 .302-.005.863 0 1.471.006.588.02 1.217.122 1.698a1.992 1.992 0 00.182.483c.054.1.123.187.147.219.04.05.1.125.165.188a1.844 1.844 0 00.773.451c.358.109.97.078 1.16.077 1.97 0 5.24-.015 7.21-.015.848-.005 2.043-.023 2.543-.082.5-.059.844-.14 1.166-.221.322-.082.443-.135.733-.242a6 6 0 001.08-.523 7.183 7.183 0 002.195-2.08 6.943 6.943 0 001.116-2.961c.038-.29.054-.583.055-.875a6.947 6.947 0 00-.842-3.34c-.692-1.248-1.69-2.22-2.932-2.846a7.005 7.005 0 00-.83-.36 8.897 8.897 0 00-.944-.264 6.755 6.755 0 00-.992-.143c-.259-.005-.406 0-.529 0-.122 0-.204.007-.427.02-.224.012-.233.024-.46.047a7.122 7.122 0 00-.933.203c-.007-.623-.093-1.745-.256-2.33-.158-.571-.319-1.148-.546-1.697-.12-.29-.233-.575-.375-.85-.262-.51-.574-.992-.876-1.446-.605-.909-1.534-1.827-2.493-2.534a11.916 11.916 0 00-2.178-1.26c-1.35-.602-3.084-.95-4.706-.912-.896.02-1.76.128-2.572.342-.811.214-1.711.543-2.561 1-.33.178-.712.412-1.062.66-.663.47-1.3 1.016-1.902 1.663a9.416 9.416 0 00-.532.64c-.348.447-.652.9-.908 1.355a10.42 10.42 0 00-1.071 2.595c-.24.927-.386 1.983-.376 2.774a7.039 7.039 0 00-2.121-.27 6.8 6.8 0 00-1.437.183 6.978 6.978 0 00-2.994 1.539 9.25 9.25 0 00-.382.359c-.113.128-.36.378-.606.71a7.081 7.081 0 00-.747 1.253c-.19.431-.308.76-.406 1.13-.18.678-.239 1.308-.216 1.736.016.316.018.743.092 1.202.013.08.03.16.046.241.037.178.081.362.14.55a8.68 8.68 0 00.247.692c.026.06.052.122.08.183l.02.046c.153.34.354.684.578 1.012.058.086.104.147.139.195l.038.052c.05.068.082.106.13.166a5.117 5.117 0 00.189.227c.018.022.045.05.072.081l.13.14a7.053 7.053 0 002.575 1.715c.9.342 1.88.467 2.793.503 2.118.082 4.877.021 7.684.022v2.602c-3.112 0-5.65-.073-8.762-.076a6.128 6.128 0 01-.483-.045c-.26-.033-.522-.078-.786-.132-1.629-.332-3.296-1.184-4.565-2.371a9.624 9.624 0 01-1.066-1.174 9.812 9.812 0 01-1.383-2.486A9.444 9.444 0 010 20.39a8.743 8.743 0 01.166-1.818c.063-.311.133-.63.227-.941.13-.433.296-.856.48-1.265.526-1.168 1.297-2.187 2.202-3.033.479-.447.809-.69 1.197-.95.75-.506 1.436-.814 2.23-1.098.75-.268 1.6-.463 2.755-.516.053-.323.156-.629.252-.947.19-.625.431-1.269.769-1.978A13.101 13.101 0 0112.18 4.92c.87-1.014 2.096-2.066 3.085-2.696.579-.37 1.16-.686 1.73-.955.402-.19.817-.355 1.245-.497a13.905 13.905 0 013.997-.765c.699-.023 1.381.004 2.065.072 1.357.136 2.713.469 4.163 1.136z" fill="#41A541"/></svg>