<svg width="320" height="1353" viewBox="0 0 320 1353" fill="none" xmlns="http://www.w3.org/2000/svg"><path d="M-548.479 311.748c-66.828-3.45-109.887-11.374-181.278 17.381-71.391 28.756-124.888 93.118-125.789 193.264-1.128 125.183 103.027 59.189 167.579 114.82 64.552 55.631-191.012 277.585-181.966 390.117 9.045 112.54 214.113 73.38 357.047 20.79 142.935-52.585 275.596-6.02 342.068 3.9 66.473 9.92 174.408 12.15 239.488-58.814 65.08-70.959 23.545-191.266 18.586-225.733-4.96-34.466-10.844-116.756 53.331-198.969 51.34-65.771 62.444-130.444 64.134-155.355 1.691-24.911-12.264-84.858-73.434-144.957-72.458-71.189-178.647-95.141-270.403-77.66-91.757 17.481-170.607 92.645-248.736 119.283-78.128 26.639-77.092 6.245-160.627 1.933z" fill="#BFDACE"/></svg>