<svg width="751" height="1030" viewBox="0 0 751 1030" fill="none" xmlns="http://www.w3.org/2000/svg"><path d="M-29.3 70.291c-69.553-15.892-113.985-32.836-190.464-11.67-76.479 21.167-136.661 87.368-144.322 204.96-9.577 146.99 103.614 87.842 167.289 164.686C-133.122 505.11-414.885 720.82-412.99 854.74c1.894 133.921 218.662 124.2 371.449 87.683 152.786-36.517 288.192 41.728 356.94 65.167 68.748 23.43 181.309 45.17 254.03-26.735 72.72-71.907 37.42-220.721 34.554-262.124-2.866-41.404-3.49-139.203 69.042-224.503 58.024-68.239 73.959-142.315 77.395-171.306 3.437-28.99-7.113-101.948-66.957-183.446C612.576 42.939 503.297-4.031 406.308.271c-96.989 4.302-184.371 78.714-267.744 96.198-83.372 17.483-80.922-6.313-167.863-26.178z" fill="#BFDACE"/></svg>